<svg id="Layer_1" data-name="Layer 1" xmlns="http://www.w3.org/2000/svg" viewBox="0 0 125 36.86"><defs><style>.cls-1{fill:#1a82a6;}.cls-2{fill:#106893;}.cls-3{fill:#ea5d2f;}</style></defs><path class="cls-1" d="M44.39,40.2c-1.47-.89.78,1.33-1.47.59C31.49,37,30.57,24.83,34.29,17c.11-.22.37-.29.43-.05a71.86,71.86,0,0,0,2.6,8.36.56.56,0,0,1,0,.08c3,5,5.87-.48,5.69,2.2a9,9,0,0,0,.7,3.79A19.72,19.72,0,0,0,45,34a29.49,29.49,0,0,0,1.8,2.74h0a46.11,46.11,0,0,0,3.27,3.94A8.81,8.81,0,0,1,44.39,40.2Z" transform="translate(-25.25 -6.57)"/><path class="cls-2" d="M44.66,14.08c-.77-.6-3.55-1.59-3.62-.1-.06,1,.33,1.48,1.34,1.27.16,0,.93-.23,1-.24l.11,0c.31-.1.84-.19,1.15-.29S44.89,14.25,44.66,14.08Zm-2.3.81a.61.61,0,1,1,.61-.61A.6.6,0,0,1,42.36,14.89Z" transform="translate(-25.25 -6.57)"/><path class="cls-2" d="M56.73,17.14a16.83,16.83,0,0,0-3.45-2.31c-1.13-.66-3.2-1.65-3.2-1.65A16.66,16.66,0,0,0,45.3,9.89a2.81,2.81,0,0,1-1-.77,6.09,6.09,0,0,0-4.16-2.46l-.28,0-.28,0-.54,0h-.52l-.5,0A11.29,11.29,0,0,0,36.12,7a12.82,12.82,0,0,0-3.39,1.54c-.13.09-.26.17-.39.27L32,9.09l-.19.15-.17.14-.33.29-.33.29-.17.15-.16.16L30,10.9a16.73,16.73,0,0,0-2.18,2.84c-.08.12-.16.25-.23.38l-.22.4c-.13.26-.29.52-.4.79s-.25.54-.37.82l-.31.83a19.58,19.58,0,0,0-1,6.79,25.31,25.31,0,0,0,.24,3.36,19.73,19.73,0,0,0,.76,3.3,19.79,19.79,0,0,0,3,5.95,20,20,0,0,0,2.19,2.49,18.78,18.78,0,0,0,2.57,2.07,16.21,16.21,0,0,0,6,2.51.22.22,0,0,0,.23-.15.21.21,0,0,0-.13-.25h0a15.83,15.83,0,0,1-5.42-3,18.42,18.42,0,0,1-5.35-7.35,18.46,18.46,0,0,1-.9-2.88,19.9,19.9,0,0,1-.42-3c0-.25,0-.51,0-.75s0-.25,0-.38v-.37c0-.5,0-1,.05-1.52a17.35,17.35,0,0,1,1.23-5.69l.3-.65.34-.61a1.83,1.83,0,0,1,.18-.3l.19-.3.2-.29c.06-.09.14-.18.21-.27a12.3,12.3,0,0,1,3-3.14c.1-.07.23-.12.34-.19,2.2-1.35,3,.94,2.88,1.1a6.81,6.81,0,0,0-1,1.5h0a2,2,0,0,0-.16.59A4.11,4.11,0,0,0,35.88,17a51.52,51.52,0,0,0,2.29,7.79,2.35,2.35,0,0,0,4.31.11A3.94,3.94,0,0,1,44.16,23l1.45-1.09c1-1.11,5-.33,5.23-.34a19,19,0,0,0,2.51-.18,2.35,2.35,0,0,1,.83-.2,3.13,3.13,0,0,1,.63.06,2.37,2.37,0,0,0,2.1-.5,5,5,0,0,0,.46-.63.16.16,0,0,0,0-.09.18.18,0,0,0-.16-.18c-.28-.05-.56-.12-.84-.16L56,19.61l-.42-.09-.41-.11-.41-.12-.41-.15c-.13-.06-.27-.1-.4-.17a2.24,2.24,0,0,1-.72-.47,0,0,0,0,1,0,0h0a1.78,1.78,0,0,0,.36.19l.39.14.41.1.4.09.42.07.41.05.41,0,.42,0c.31,0,.62,0,.93,0a.47.47,0,0,0,.5-.46C58,17.79,57.66,17.52,56.73,17.14ZM45.05,15.59a6.94,6.94,0,0,1-.32.68,2.12,2.12,0,0,1-.11.21l-.25.41h0l0,.07,0,.07c-.22.32-.56.77-.61.83h0c-.09.1-.51.56-.89.95h0a5.38,5.38,0,0,1-.78.63c-.51.33-1.34.27-1.4-.35s0-1.72-.07-2.37a1.61,1.61,0,0,1,0-.22c0-.13,0-.82,0-1.39,0-.08,0-.64,0-.75,0-2,1.25-2.5,3.52-1.76l.11,0h0C45.48,13.17,45.54,14.35,45.05,15.59Z" transform="translate(-25.25 -6.57)"/><path class="cls-3" d="M51,40.4a44.27,44.27,0,0,1-3.21-3.89h0l-1.8-2.75c-1.6-3-2.07-5-1.84-6.71h0c.17.13,6.17,4.92,12,4.07.54-.08,1.32-.17,1.54.32C58.26,33,55.38,38.87,51,40.4Z" transform="translate(-25.25 -6.57)"/><path class="cls-2" d="M44.66,14.08c-.77-.6-3.55-1.59-3.62-.1-.06,1,.33,1.48,1.34,1.27.16,0,.93-.23,1-.24l.11,0c.31-.1.84-.19,1.15-.29S44.89,14.25,44.66,14.08Zm-2.3.81a.61.61,0,1,1,.61-.61A.6.6,0,0,1,42.36,14.89Z" transform="translate(-25.25 -6.57)"/><path class="cls-2" d="M73.65,27.25H72.59a.08.08,0,0,0-.09.09V33a1.06,1.06,0,0,1-.25.78.94.94,0,0,1-.7.26,1.13,1.13,0,0,1-.36-.06.92.92,0,0,1-.33-.19,1.07,1.07,0,0,1-.23-.34,1.3,1.3,0,0,1-.08-.51,2.09,2.09,0,0,1,.1-.69,4.15,4.15,0,0,1,.23-.55.2.2,0,0,0,0-.07s0,0,0,0l-.94-.3c-.07,0-.11,0-.13,0a3.47,3.47,0,0,0-.36.83,3.6,3.6,0,0,0-.12.9,2.27,2.27,0,0,0,.18,1,1.87,1.87,0,0,0,.48.65,2.07,2.07,0,0,0,.71.36,3.18,3.18,0,0,0,1.73,0,1.94,1.94,0,0,0,.7-.36,1.69,1.69,0,0,0,.47-.64,2.23,2.23,0,0,0,.17-.94V27.34C73.73,27.28,73.7,27.25,73.65,27.25Z" transform="translate(-25.25 -6.57)"/><path class="cls-2" d="M96.87,32.14H95L94.81,32a.95.95,0,0,1-.33-.43,1,1,0,0,1-.06-.36.8.8,0,0,1,.22-.61.79.79,0,0,1,.57-.21,1.18,1.18,0,0,1,.86.4.09.09,0,0,0,.13,0l.55-.66s.06-.09,0-.13a1.78,1.78,0,0,0-.65-.46,2.73,2.73,0,0,0-1.92-.05,1.69,1.69,0,0,0-.6.39,1.56,1.56,0,0,0-.35.56,2.14,2.14,0,0,0-.11.67,1.62,1.62,0,0,0,.09.57,1.59,1.59,0,0,0,.23.43H87.18a.51.51,0,0,1-.37-.14.58.58,0,0,1-.17-.42v-.11a.49.49,0,0,0,0-.12,2,2,0,0,0-.52-1.49,2,2,0,0,0-1.41-.49,2,2,0,0,0-1.42.46,1.74,1.74,0,0,0-.5,1.34v.18a.93.93,0,0,1-.18.62.51.51,0,0,1-.36.17H76.43a.43.43,0,0,1-.32-.11.47.47,0,0,1-.1-.36V27.34a.08.08,0,0,0-.09-.09h-1a.08.08,0,0,0-.09.09v4.75a1.24,1.24,0,0,0,.24.84,1,1,0,0,0,.78.26h6.5l.34-.06A1,1,0,0,0,83,33a.69.69,0,0,0,.26-.25,1.36,1.36,0,0,0,.65.42,3.24,3.24,0,0,0,.85.11,3,3,0,0,0,.87-.12,1.48,1.48,0,0,0,.66-.44,1.05,1.05,0,0,0,.24.27.85.85,0,0,0,.3.15,1.14,1.14,0,0,0,.32.07h9.76c.06,0,.08,0,.08-.08v-.89C97,32.16,96.93,32.14,96.87,32.14ZM85.26,32a.83.83,0,0,1-1.08,0,1,1,0,0,1-.18-.69c0-.59.24-.89.72-.89s.72.3.72.89A1,1,0,0,1,85.26,32Z" transform="translate(-25.25 -6.57)"/><path class="cls-2" d="M102.65,27.25h-1.07c-.06,0-.08,0-.08.09v4.33a.47.47,0,0,1-.11.36.4.4,0,0,1-.31.11h-.8V28.57c0-.06,0-.08-.09-.08H99.13c-.06,0-.09,0-.09.08v3.57H97.65c-.06,0-.08,0-.08.08v.89s0,.08.08.08h4.06a1,1,0,0,0,.79-.26,1.24,1.24,0,0,0,.24-.84V27.34A.08.08,0,0,0,102.65,27.25Z" transform="translate(-25.25 -6.57)"/><rect class="cls-2" x="78.53" y="20.68" width="1.23" height="5.94" rx="0.09"/><path class="cls-2" d="M114.55,29.52h-1.07a.07.07,0,0,0-.08.08v2.07a.51.51,0,0,1-.1.36.45.45,0,0,1-.33.11H109.7a.44.44,0,0,1-.32-.11.51.51,0,0,1-.1-.36V30.16c0-.06,0-.09-.08-.09h-1.07a.08.08,0,0,0-.09.09v1.93a1.24,1.24,0,0,0,.24.84,1,1,0,0,0,.79.26h4.53a1.05,1.05,0,0,0,.8-.26,1.24,1.24,0,0,0,.24-.84V29.6C114.64,29.55,114.61,29.52,114.55,29.52Z" transform="translate(-25.25 -6.57)"/><rect class="cls-2" x="86.22" y="21.55" width="1.06" height="1.03" rx="0.09"/><rect class="cls-2" x="84.88" y="21.55" width="1.05" height="1.03" rx="0.09"/><path class="cls-2" d="M126.89,29.79a1.76,1.76,0,0,0-.62-.33,2.92,2.92,0,0,0-.73-.09,3.38,3.38,0,0,0-.72.08,1.7,1.7,0,0,0-.62.3,1.5,1.5,0,0,0-.42.56,2,2,0,0,0-.16.86v.18a1,1,0,0,1-.19.62.51.51,0,0,1-.36.17h-5.82a.43.43,0,0,1-.32-.11.47.47,0,0,1-.1-.36V27.34a.08.08,0,0,0-.09-.09h-1a.08.08,0,0,0-.09.09v4.75a1.3,1.3,0,0,0,.23.84,1,1,0,0,0,.79.26h6.48a1.25,1.25,0,0,0,.32,0,2.33,2.33,0,0,0,.33-.14.8.8,0,0,0,.28-.27,1.44,1.44,0,0,0,.66.42,3.18,3.18,0,0,0,.85.11,3.1,3.1,0,0,0,.76-.09,1.55,1.55,0,0,0,.61-.32,1.6,1.6,0,0,0,.41-.59,2.42,2.42,0,0,0,.15-.9,2.67,2.67,0,0,0-.16-1A1.69,1.69,0,0,0,126.89,29.79ZM126.08,32A.83.83,0,0,1,125,32a1,1,0,0,1-.19-.69c0-.59.24-.89.73-.89s.71.3.71.89A1.09,1.09,0,0,1,126.08,32Z" transform="translate(-25.25 -6.57)"/><rect class="cls-2" x="114.16" y="21.04" width="1.26" height="1.03" rx="0.09"/><path class="cls-2" d="M150.16,27.25H149.1a.08.08,0,0,0-.09.09v4.33a.47.47,0,0,1-.1.36.43.43,0,0,1-.32.11h-5.84a.73.73,0,0,1-.47-.13.47.47,0,0,1-.19-.33v-.14a3,3,0,0,0-.11-.86,1.9,1.9,0,0,0-.36-.69,1.74,1.74,0,0,0-.65-.46,2.53,2.53,0,0,0-1-.16,2.12,2.12,0,0,0-.95.19,2.47,2.47,0,0,0-.69.51s0,.07,0,.13l.52.62a.08.08,0,0,0,.12,0,2.21,2.21,0,0,1,.4-.28,1.15,1.15,0,0,1,.5-.11.87.87,0,0,1,.42.09.69.69,0,0,1,.28.22,1,1,0,0,1,.15.34,1.78,1.78,0,0,1,0,.41,1.45,1.45,0,0,1,0,.32.42.42,0,0,1-.1.2.41.41,0,0,1-.21.1,1.09,1.09,0,0,1-.34,0h-7.7A.8.8,0,0,1,132,32a.48.48,0,0,1-.19-.35v-.72a1.5,1.5,0,0,0-.44-1.22,2,2,0,0,0-1.25-.35h-1.37c-.06,0-.09,0-.09.08v.89c0,.05,0,.08.09.08h1a.9.9,0,0,1,.59.16.58.58,0,0,1,.2.49v.47a1.09,1.09,0,0,1,0,.28.3.3,0,0,1-.08.18.38.38,0,0,1-.2.1,1.12,1.12,0,0,1-.35,0h-1.5c-.06,0-.09,0-.09.08v.89s0,.08.09.08h2.11a1.75,1.75,0,0,0,.69-.11.81.81,0,0,0,.43-.39.85.85,0,0,0,.43.41,2,2,0,0,0,.63.09h8a2.12,2.12,0,0,0,.75-.11.86.86,0,0,0,.5-.42.83.83,0,0,0,.44.43,1.79,1.79,0,0,0,.64.1h6.28a1,1,0,0,0,.79-.26,1.3,1.3,0,0,0,.23-.84V27.34A.08.08,0,0,0,150.16,27.25Z" transform="translate(-25.25 -6.57)"/><path class="cls-2" d="M73.12,14.49H70.26c-.11,0-.17,0-.17.16v1.67c0,.11.06.16.17.16h1.89a1.82,1.82,0,0,1,1.11.29,1.09,1.09,0,0,1,.37.93v.89a2.72,2.72,0,0,1,0,.53.68.68,0,0,1-.16.34.76.76,0,0,1-.37.19,3,3,0,0,1-.66.06H69.56c-.11,0-.16.06-.16.17v1.66a.14.14,0,0,0,.16.16h4a3.67,3.67,0,0,0,1.1-.14,1.63,1.63,0,0,0,.77-.46,2,2,0,0,0,.46-.86A5.09,5.09,0,0,0,76,18.89V17.45a3,3,0,0,0-.76-2.24A3,3,0,0,0,73.12,14.49Z" transform="translate(-25.25 -6.57)"/><path class="cls-2" d="M97.31,15.34a2.61,2.61,0,0,0-1.1-.52,8,8,0,0,0-1.51-.18l2.47-2.87a.16.16,0,0,0-.06-.23l-1.37-1.15a.14.14,0,0,0-.21,0L92,14.57c-.06.08-.14.16-.23.26a.43.43,0,0,0-.13.25v1.35a.15.15,0,0,0,.17.17h2.47a1.82,1.82,0,0,1,1.13.29,1.21,1.21,0,0,1,.35,1v.76a2.7,2.7,0,0,1,0,.54.68.68,0,0,1-.17.34.79.79,0,0,1-.38.17,3.73,3.73,0,0,1-.65.05H84.8V18.18a4.82,4.82,0,0,0-.29-1.77,2.82,2.82,0,0,0-.78-1.14,3,3,0,0,0-1.15-.6,5.24,5.24,0,0,0-1.39-.18,4.63,4.63,0,0,0-1.34.2,3,3,0,0,0-1.15.64,3.14,3.14,0,0,0-.81,1.17,4.63,4.63,0,0,0-.3,1.78,3.42,3.42,0,0,0,.86,2.65,3.58,3.58,0,0,0,2.48.77h1.58a2,2,0,0,1-.1.7.82.82,0,0,1-.28.42,1,1,0,0,1-.45.21,2.9,2.9,0,0,1-.62.06H79.17c-.11,0-.17.05-.17.16v1.67c0,.11.06.16.17.16h2.4A3.39,3.39,0,0,0,84,24.32,3.06,3.06,0,0,0,84.8,22V21.7H95.71a3.61,3.61,0,0,0,1.09-.14,1.66,1.66,0,0,0,.78-.46,2.13,2.13,0,0,0,.46-.86,5.09,5.09,0,0,0,.16-1.35v-1A4.78,4.78,0,0,0,98,16.33,2.27,2.27,0,0,0,97.31,15.34Zm-14.8,4.37H81.24a1.6,1.6,0,0,1-1-.3,1.5,1.5,0,0,1-.39-1.21,2,2,0,0,1,.36-1.26,1.21,1.21,0,0,1,1-.46c.87,0,1.3.55,1.3,1.63Z" transform="translate(-25.25 -6.57)"/><path class="cls-2" d="M145.68,10.5h-2a.15.15,0,0,0-.17.17v8.17a.94.94,0,0,1-.19.68.79.79,0,0,1-.6.19h-6a1,1,0,0,1-.71-.25,1.11,1.11,0,0,1-.31-.8,1.48,1.48,0,0,1,0-.21v-.22a3.72,3.72,0,0,0-1-2.81,4.39,4.39,0,0,0-5.34-.05,3.29,3.29,0,0,0-.94,2.53v.33a1.75,1.75,0,0,1-.34,1.17.92.92,0,0,1-.68.31H120.5a3.17,3.17,0,0,0,.33-.84,4.35,4.35,0,0,0,.15-1.14,3.54,3.54,0,0,0-.3-1.53,2.73,2.73,0,0,0-.79-1,3.15,3.15,0,0,0-1.15-.55,5.78,5.78,0,0,0-1.4-.16,5.06,5.06,0,0,0-1.28.17,3,3,0,0,0-1.13.59,2.84,2.84,0,0,0-.82,1.12,4.33,4.33,0,0,0-.31,1.76v1.58H107a.79.79,0,0,1-.6-.19.94.94,0,0,1-.19-.68V10.67a.15.15,0,0,0-.17-.17h-2a.15.15,0,0,0-.17.17v9a2.3,2.3,0,0,0,.45,1.57,1.88,1.88,0,0,0,1.48.5h8v1a2.61,2.61,0,0,0,.27,1.24,2.18,2.18,0,0,0,.76.81,3.24,3.24,0,0,0,1.13.42,7,7,0,0,0,1.41.13,7.24,7.24,0,0,0,1.37-.13,3.44,3.44,0,0,0,1.09-.42,2.21,2.21,0,0,0,.74-.75,2.28,2.28,0,0,0,.26-1.11,2.18,2.18,0,0,0-.09-.63,1.93,1.93,0,0,0-.26-.54H127c.17,0,.35,0,.56,0a3.78,3.78,0,0,0,.64-.12,2.37,2.37,0,0,0,.61-.27,1.38,1.38,0,0,0,.48-.48,2.6,2.6,0,0,0,1.23.79,5.43,5.43,0,0,0,1.6.22,5.33,5.33,0,0,0,1.64-.24,2.68,2.68,0,0,0,1.25-.83,1.67,1.67,0,0,0,.46.52,2.29,2.29,0,0,0,.56.29,3.14,3.14,0,0,0,.61.12l.59,0h6.72a1.89,1.89,0,0,0,1.49-.5,2.35,2.35,0,0,0,.44-1.57v-9C145.84,10.56,145.79,10.5,145.68,10.5ZM118.29,23.15a1.55,1.55,0,0,1-.92.22,1.67,1.67,0,0,1-1-.23.89.89,0,0,1-.31-.76v-.81h1.13a1.59,1.59,0,0,1,1.08.26.91.91,0,0,1,.26.68A.78.78,0,0,1,118.29,23.15Zm.12-3.9a1,1,0,0,1-.94.49h-1.38V18a1.65,1.65,0,0,1,.34-1.15,1.23,1.23,0,0,1,.93-.37,1.31,1.31,0,0,1,1,.38,1.64,1.64,0,0,1,.36,1.17A2.32,2.32,0,0,1,118.41,19.25Zm14.7.21a1.59,1.59,0,0,1-2,0,2,2,0,0,1-.34-1.31c0-1.11.45-1.67,1.35-1.67s1.35.56,1.35,1.67A2,2,0,0,1,133.11,19.46Z" transform="translate(-25.25 -6.57)"/><rect class="cls-2" x="122.57" y="3.93" width="2.32" height="11.2" rx="0.16"/></svg>