<?xml version="1.0" encoding="utf-8"?>
<!-- Generator: Adobe Illustrator 26.0.1, SVG Export Plug-In . SVG Version: 6.00 Build 0)  -->
<svg version="1.1" id="Layer_1" xmlns="http://www.w3.org/2000/svg" xmlns:xlink="http://www.w3.org/1999/xlink" x="0px" y="0px"
	 viewBox="0 0 180 50" style="enable-background:new 0 0 180 50;" xml:space="preserve">
<style type="text/css">
	.st0{display:none;}
	.st1{display:inline;}
	.st2{fill:#1A82A6;}
	.st3{fill:#106893;}
	.st4{fill:#EA5D2F;}
	.st5{fill:#FFFFFF;}
</style>
<g class="st0">
	<g class="st1">
		<g>
			<g>
				<path class="st2" d="M43.51,41.2c-1.47-0.88,0.78,1.33-1.47,0.59C30.61,38,29.69,25.83,33.41,18.04
					c0.11-0.22,0.37-0.29,0.43-0.06c0.81,3.44,1.81,6.17,2.6,8.36c0.02,0.03,0.03,0.05,0.05,0.08c3.02,4.99,5.87-0.48,5.69,2.21
					c-0.08,1.2,0.2,2.49,0.7,3.79c0.34,0.87,0.77,1.74,1.25,2.58c0.56,0.97,1.18,1.9,1.8,2.75c0,0,0,0,0,0
					c1.42,1.94,2.84,3.47,3.27,3.93C48.41,42.08,45.04,42.12,43.51,41.2z"/>
			</g>
		</g>
		<path class="st3" d="M43.78,15.08c-0.78-0.59-3.55-1.59-3.62-0.1c-0.05,1.02,0.34,1.48,1.34,1.27c0.16-0.03,0.94-0.23,1.04-0.24
			c0.04-0.01,0.07-0.01,0.11-0.03c0.31-0.1,0.84-0.18,1.15-0.28C44.1,15.6,44.01,15.25,43.78,15.08z M41.49,15.89
			c-0.33,0-0.6-0.27-0.6-0.6s0.27-0.6,0.6-0.6c0.33,0,0.6,0.27,0.6,0.6S41.82,15.89,41.49,15.89z"/>
		<path class="st3" d="M55.85,18.14c-1.83-1.31-1.83-1.55-3.45-2.31c-1.13-0.65-3.2-1.64-3.2-1.64s-1.9-2-4.78-3.29
			c-0.39-0.17-0.73-0.44-1.01-0.77c-1-1.22-2.42-2.34-4.16-2.46c-0.1-0.02-0.19-0.03-0.28-0.04c-0.09-0.01-0.19-0.02-0.28-0.03
			c-0.18-0.01-0.37-0.03-0.54-0.02h-0.26c-0.09,0-0.17,0.01-0.26,0.01c-0.17,0.01-0.34,0.02-0.5,0.04c-0.66,0.07-1.29,0.2-1.89,0.37
			c-1.2,0.35-2.32,0.86-3.39,1.54c-0.13,0.09-0.26,0.17-0.39,0.27c-0.13,0.09-0.26,0.18-0.39,0.28c-0.06,0.05-0.13,0.1-0.19,0.15
			l-0.17,0.14l-0.33,0.29l-0.33,0.29l-0.17,0.14c-0.05,0.05-0.1,0.1-0.16,0.16L29.1,11.9c-0.81,0.87-1.57,1.81-2.18,2.84
			c-0.08,0.13-0.16,0.25-0.23,0.38l-0.21,0.4c-0.14,0.27-0.29,0.52-0.41,0.79c-0.12,0.27-0.25,0.54-0.36,0.81l-0.31,0.83
			c-0.78,2.24-1.05,4.57-1.01,6.8c0.01,1.1,0.08,2.24,0.25,3.36c0.16,1.12,0.41,2.22,0.75,3.3c0.34,1.07,0.77,2.12,1.27,3.12
			c0.51,1,1.1,1.95,1.77,2.84c0.66,0.89,1.4,1.73,2.2,2.49c0.8,0.76,1.66,1.45,2.57,2.06c1.82,1.21,3.85,2.12,5.99,2.51
			c0.1,0.02,0.2-0.04,0.23-0.14c0.03-0.1-0.03-0.22-0.14-0.25l0,0c-2.01-0.61-3.83-1.69-5.42-3c-0.8-0.66-1.53-1.39-2.2-2.17
			c-0.67-0.77-1.27-1.6-1.8-2.47c-0.53-0.87-0.98-1.78-1.35-2.71c-0.38-0.94-0.68-1.9-0.89-2.88c-0.22-0.98-0.36-1.97-0.42-2.97
			c-0.03-0.25-0.02-0.5-0.03-0.75c0-0.13-0.01-0.25-0.01-0.37l0-0.37c0-0.5,0.02-1.01,0.05-1.51c0.12-2.02,0.49-3.96,1.23-5.7
			l0.3-0.64c0.11-0.21,0.23-0.41,0.34-0.62c0.06-0.1,0.11-0.2,0.18-0.3l0.19-0.29l0.19-0.29c0.07-0.1,0.15-0.18,0.21-0.28
			c1.18-1.77,2.52-2.82,2.97-3.13c0.11-0.08,0.23-0.13,0.34-0.2c2.2-1.35,3.02,0.94,2.88,1.1c-0.46,0.55-0.81,1.07-1,1.5
			c0,0,0,0.01,0,0.01c-0.08,0.18-0.13,0.37-0.15,0.59c-0.04,0.38,0,0.83,0.13,1.37c0.62,2.62,1.27,5.3,2.29,7.79
			c0.78,1.9,3.48,1.98,4.31,0.11c0.36-0.8,0.91-1.39,1.68-1.83c0.48-0.37,0.96-0.73,1.45-1.1c1.04-1.11,4.98-0.33,5.23-0.34
			c0.3-0.01,2.25-0.06,2.52-0.18c0.24-0.11,0.52-0.18,0.83-0.19c0.22-0.01,0.43,0.01,0.62,0.05c0.75,0.17,1.54,0.02,2.1-0.5
			c0.08-0.08,0.28-0.36,0.45-0.62c0.02-0.03,0.03-0.07,0.03-0.1c0-0.08-0.06-0.17-0.15-0.18c-0.28-0.05-0.56-0.11-0.84-0.16
			l-0.42-0.09c-0.14-0.03-0.28-0.06-0.42-0.09c-0.14-0.04-0.28-0.07-0.41-0.11l-0.41-0.12c-0.14-0.05-0.27-0.1-0.4-0.15
			c-0.13-0.06-0.27-0.1-0.4-0.17c-0.26-0.12-0.52-0.25-0.73-0.47c-0.01-0.01-0.01-0.03,0-0.04c0.01-0.01,0.03-0.01,0.04,0l0.01,0
			c0.1,0.08,0.23,0.14,0.36,0.19c0.13,0.05,0.26,0.1,0.39,0.14c0.13,0.04,0.27,0.07,0.4,0.11c0.13,0.03,0.27,0.06,0.41,0.08
			l0.41,0.07c0.14,0.02,0.28,0.04,0.41,0.06c0.14,0.02,0.28,0.03,0.41,0.05l0.42,0.04c0.31,0.03,0.62,0.03,0.93,0.04
			c0.27,0.01,0.49-0.2,0.5-0.46C57.07,18.79,56.79,18.52,55.85,18.14z M44.17,16.59c-0.09,0.22-0.19,0.45-0.31,0.67
			c-0.04,0.07-0.08,0.14-0.12,0.21c-0.08,0.14-0.16,0.28-0.25,0.41l0,0c-0.01,0.02-0.03,0.04-0.04,0.07
			c-0.01,0.02-0.03,0.05-0.05,0.07c-0.22,0.32-0.56,0.76-0.61,0.83c-0.01,0-0.01,0.01-0.01,0.01c-0.09,0.1-0.51,0.56-0.89,0.95
			c0,0-0.01,0.01-0.01,0.01c-0.28,0.26-0.55,0.48-0.78,0.63c-0.5,0.33-1.34,0.27-1.4-0.35c-0.07-0.65,0-1.72-0.07-2.38
			c-0.01-0.07-0.01-0.14,0-0.22c0.01-0.13-0.01-0.82-0.02-1.38c0-0.08-0.01-0.64-0.01-0.75c0.04-2.05,1.25-2.5,3.52-1.77
			c0.04,0.01,0.07,0.03,0.12,0.04l0.01,0C44.6,14.17,44.67,15.35,44.17,16.59z"/>
		<path class="st4" d="M50.07,41.4c-0.42-0.47-1.8-1.95-3.21-3.89c0,0,0,0,0,0l-1.8-2.75c-1.6-3-2.07-4.97-1.84-6.71c0,0,0,0,0,0
			c0,0,0,0,0,0c0.17,0.14,6.18,4.93,11.96,4.07c0.53-0.08,1.32-0.17,1.53,0.32C57.39,33.97,54.5,39.87,50.07,41.4z"/>
		<path class="st3" d="M43.78,15.08c-0.78-0.59-3.55-1.59-3.62-0.1c-0.05,1.02,0.34,1.48,1.34,1.27c0.16-0.03,0.94-0.23,1.04-0.24
			c0.04-0.01,0.07-0.01,0.11-0.03c0.31-0.1,0.84-0.18,1.15-0.28C44.1,15.6,44.01,15.25,43.78,15.08z M41.49,15.89
			c-0.33,0-0.6-0.27-0.6-0.6s0.27-0.6,0.6-0.6c0.33,0,0.6,0.27,0.6,0.6S41.82,15.89,41.49,15.89z"/>
	</g>
	<g class="st1">
		<path class="st3" d="M72.77,28.25h-1.06c-0.06,0-0.09,0.03-0.09,0.09v5.61c0,0.36-0.08,0.62-0.25,0.79
			c-0.17,0.17-0.4,0.25-0.7,0.25c-0.12,0-0.24-0.02-0.36-0.06c-0.12-0.04-0.23-0.1-0.32-0.19c-0.1-0.09-0.17-0.2-0.23-0.34
			c-0.06-0.14-0.09-0.31-0.09-0.52c0-0.26,0.03-0.49,0.1-0.69c0.07-0.2,0.15-0.39,0.23-0.55c0.01-0.02,0.02-0.05,0.01-0.07
			c0-0.02-0.02-0.04-0.05-0.05l-0.94-0.31c-0.06-0.02-0.11-0.01-0.13,0.03c-0.15,0.24-0.27,0.52-0.35,0.83
			c-0.08,0.31-0.13,0.61-0.13,0.9c0,0.37,0.06,0.68,0.18,0.95c0.12,0.26,0.28,0.48,0.48,0.65c0.2,0.17,0.44,0.29,0.71,0.37
			c0.27,0.08,0.56,0.12,0.86,0.12c0.31,0,0.6-0.04,0.87-0.12s0.5-0.2,0.7-0.37c0.2-0.17,0.35-0.38,0.47-0.64
			c0.11-0.26,0.17-0.57,0.17-0.94v-5.66C72.85,28.28,72.82,28.25,72.77,28.25z"/>
		<path class="st3" d="M95.99,33.14h-1.9c-0.04-0.02-0.09-0.06-0.15-0.1c-0.06-0.04-0.12-0.1-0.18-0.17
			c-0.06-0.07-0.11-0.16-0.15-0.26c-0.04-0.1-0.06-0.22-0.06-0.35c0-0.27,0.07-0.47,0.22-0.61c0.15-0.14,0.33-0.21,0.57-0.21
			c0.32,0,0.61,0.13,0.86,0.39c0.04,0.04,0.08,0.04,0.13,0l0.55-0.66c0.05-0.05,0.05-0.09,0.02-0.13c-0.15-0.17-0.36-0.33-0.65-0.46
			c-0.29-0.13-0.64-0.2-1.06-0.2c-0.33,0-0.62,0.05-0.86,0.15c-0.24,0.1-0.45,0.23-0.6,0.39c-0.16,0.16-0.27,0.35-0.35,0.56
			c-0.08,0.21-0.11,0.44-0.11,0.67c0,0.22,0.03,0.41,0.09,0.57c0.06,0.17,0.14,0.31,0.23,0.42h-0.7h-1.13h-2.42h-1.78h-0.01H86.3
			c-0.15,0-0.28-0.05-0.38-0.14c-0.1-0.09-0.15-0.23-0.17-0.42c0-0.03,0-0.07,0-0.11c0-0.04,0-0.08,0-0.12
			c0-0.66-0.17-1.16-0.52-1.49c-0.35-0.33-0.82-0.49-1.41-0.49c-0.62,0-1.09,0.16-1.42,0.47c-0.33,0.31-0.5,0.76-0.5,1.34v0.17
			c-0.01,0.3-0.07,0.51-0.18,0.62c-0.11,0.11-0.23,0.17-0.36,0.17h-0.25H80h-3.08h-1.13h-0.24c-0.15,0-0.25-0.03-0.32-0.1
			c-0.07-0.07-0.1-0.19-0.1-0.36v-4.33c0-0.06-0.03-0.09-0.09-0.09h-1.06c-0.06,0-0.09,0.03-0.09,0.09v4.75
			c0,0.38,0.08,0.66,0.24,0.83c0.16,0.18,0.42,0.27,0.79,0.27h0.86h1.13H80h1.13c0.09,0,0.19,0,0.3-0.01
			c0.11-0.01,0.22-0.03,0.34-0.06c0.11-0.03,0.22-0.08,0.33-0.14c0.1-0.06,0.19-0.15,0.25-0.25c0.17,0.2,0.39,0.34,0.65,0.41
			c0.26,0.08,0.54,0.12,0.85,0.12c0.31,0,0.6-0.04,0.87-0.13c0.26-0.08,0.48-0.23,0.66-0.44c0.07,0.12,0.15,0.21,0.24,0.27
			c0.09,0.07,0.19,0.12,0.3,0.15c0.1,0.03,0.21,0.06,0.32,0.07c0.11,0.01,0.21,0.01,0.31,0.01c0,0,0,0,0,0h1.79h2.42h1.13h4.1
			c0.06,0,0.09-0.03,0.09-0.09v-0.88C96.08,33.16,96.05,33.14,95.99,33.14z M84.38,33c-0.12,0.13-0.3,0.2-0.54,0.2
			c-0.24,0-0.42-0.07-0.54-0.2c-0.12-0.13-0.18-0.36-0.18-0.69c0-0.59,0.24-0.88,0.72-0.88c0.48,0,0.72,0.29,0.72,0.88
			C84.56,32.64,84.5,32.87,84.38,33z"/>
		<path class="st3" d="M101.77,28.25h-1.07c-0.06,0-0.09,0.03-0.09,0.09v4.33c0,0.17-0.03,0.3-0.1,0.36
			c-0.07,0.07-0.17,0.1-0.32,0.1H99.4v-3.56c0-0.06-0.03-0.09-0.09-0.09h-1.07c-0.06,0-0.09,0.03-0.09,0.09v3.56h-1.39
			c-0.06,0-0.09,0.03-0.09,0.09v0.88c0,0.06,0.03,0.09,0.09,0.09h4.06c0.37,0,0.63-0.09,0.79-0.27s0.24-0.46,0.24-0.83v-4.75
			C101.86,28.28,101.83,28.25,101.77,28.25z"/>
		<path class="st3" d="M104.05,28.25h-1.06c-0.06,0-0.09,0.03-0.09,0.09v5.76c0,0.06,0.03,0.09,0.09,0.09h1.06
			c0.06,0,0.09-0.03,0.09-0.09v-5.76C104.14,28.28,104.11,28.25,104.05,28.25z"/>
		<path class="st3" d="M113.67,30.52h-1.07c-0.06,0-0.09,0.03-0.09,0.09v2.07c0,0.17-0.03,0.3-0.1,0.36
			c-0.07,0.07-0.18,0.1-0.33,0.1h-3.27c-0.15,0-0.25-0.03-0.32-0.1c-0.07-0.07-0.1-0.19-0.1-0.36v-1.51c0-0.06-0.03-0.09-0.09-0.09
			h-1.07c-0.06,0-0.09,0.03-0.09,0.09v1.93c0,0.38,0.08,0.66,0.24,0.83c0.16,0.18,0.42,0.27,0.79,0.27h4.53
			c0.38,0,0.65-0.09,0.8-0.27c0.16-0.18,0.24-0.46,0.24-0.83V30.6C113.76,30.55,113.73,30.52,113.67,30.52z"/>
		<path class="st3" d="M110.69,30.15h0.88c0.06,0,0.09-0.03,0.09-0.09v-0.86c0-0.06-0.03-0.09-0.09-0.09h-0.88
			c-0.06,0-0.09,0.03-0.09,0.09v0.86C110.6,30.12,110.63,30.15,110.69,30.15z"/>
		<path class="st3" d="M109.34,30.15h0.87c0.06,0,0.09-0.03,0.09-0.09v-0.86c0-0.06-0.03-0.09-0.09-0.09h-0.87
			c-0.06,0-0.09,0.03-0.09,0.09v0.86C109.25,30.12,109.28,30.15,109.34,30.15z"/>
		<path class="st3" d="M126.01,30.79c-0.18-0.15-0.38-0.26-0.62-0.32c-0.23-0.06-0.48-0.1-0.73-0.1c-0.25,0-0.49,0.03-0.72,0.09
			c-0.23,0.06-0.43,0.16-0.61,0.3c-0.18,0.14-0.32,0.33-0.43,0.56c-0.11,0.23-0.16,0.52-0.16,0.86v0.17
			c-0.01,0.3-0.07,0.51-0.18,0.62c-0.11,0.11-0.23,0.17-0.36,0.17h-0.25h-1.13h-3.08h-1.13h-0.24c-0.15,0-0.25-0.03-0.32-0.1
			c-0.07-0.07-0.1-0.19-0.1-0.36v-4.33c0-0.06-0.03-0.09-0.09-0.09h-1.06c-0.06,0-0.09,0.03-0.09,0.09v4.75
			c0,0.38,0.08,0.66,0.24,0.83c0.16,0.18,0.42,0.27,0.79,0.27h0.86h1.13h3.08h1.13c0.08,0,0.17,0,0.28-0.01
			c0.1-0.01,0.21-0.02,0.32-0.06c0.11-0.03,0.22-0.08,0.33-0.14c0.11-0.06,0.2-0.15,0.28-0.27c0.17,0.2,0.39,0.34,0.65,0.41
			c0.26,0.08,0.54,0.12,0.85,0.12c0.27,0,0.53-0.03,0.76-0.1c0.24-0.06,0.44-0.17,0.61-0.32c0.17-0.15,0.31-0.35,0.41-0.59
			c0.1-0.24,0.15-0.54,0.15-0.9c0-0.38-0.05-0.7-0.16-0.96C126.33,31.14,126.18,30.94,126.01,30.79z M125.2,33
			c-0.12,0.13-0.3,0.2-0.54,0.2c-0.24,0-0.42-0.07-0.54-0.2c-0.12-0.13-0.18-0.36-0.18-0.69c0-0.59,0.24-0.88,0.72-0.88
			c0.48,0,0.72,0.29,0.72,0.88C125.37,32.64,125.32,32.87,125.2,33z"/>
		<path class="st3" d="M138.62,29.64h1.08c0.06,0,0.09-0.03,0.09-0.09V28.7c0-0.06-0.03-0.09-0.09-0.09h-1.08
			c-0.06,0-0.09,0.03-0.09,0.09v0.86C138.54,29.61,138.56,29.64,138.62,29.64z"/>
		<path class="st3" d="M149.29,28.25h-1.07c-0.06,0-0.09,0.03-0.09,0.09v4.33c0,0.17-0.03,0.3-0.1,0.36
			c-0.07,0.07-0.17,0.1-0.32,0.1h-0.31h-1.13h-3.08h-1.13h0h-0.2c-0.2,0-0.36-0.04-0.47-0.12c-0.11-0.08-0.17-0.19-0.19-0.33v-0.14
			c0-0.31-0.04-0.6-0.11-0.86c-0.08-0.27-0.2-0.49-0.36-0.69c-0.17-0.2-0.38-0.35-0.65-0.46c-0.26-0.11-0.59-0.17-0.97-0.17
			c-0.37,0-0.69,0.07-0.95,0.2c-0.26,0.13-0.49,0.3-0.69,0.5c-0.03,0.03-0.03,0.08,0.03,0.13l0.52,0.62
			c0.04,0.03,0.08,0.03,0.12-0.01c0.12-0.11,0.26-0.2,0.4-0.27c0.15-0.07,0.31-0.11,0.5-0.11c0.17,0,0.31,0.03,0.42,0.08
			c0.11,0.06,0.21,0.13,0.27,0.23c0.07,0.1,0.12,0.21,0.15,0.34c0.03,0.13,0.04,0.27,0.04,0.41c0,0.13-0.01,0.23-0.03,0.32
			c-0.02,0.08-0.06,0.15-0.1,0.2c-0.05,0.05-0.12,0.08-0.2,0.1c-0.09,0.02-0.2,0.03-0.34,0.03h-2.17h-1.13h-3.08h-1.13h-0.19
			c-0.2,0-0.36-0.04-0.48-0.13c-0.11-0.08-0.18-0.2-0.19-0.34v-0.72c0-0.58-0.15-0.98-0.44-1.22c-0.29-0.24-0.71-0.35-1.25-0.35
			h-1.37c-0.06,0-0.09,0.03-0.09,0.09v0.88c0,0.06,0.03,0.09,0.09,0.09h1c0.26,0,0.46,0.05,0.59,0.15s0.2,0.27,0.2,0.49v0.47
			c0,0.11-0.01,0.2-0.02,0.28c-0.01,0.08-0.04,0.14-0.09,0.18c-0.04,0.05-0.11,0.08-0.2,0.1c-0.09,0.02-0.2,0.03-0.35,0.03h-1.5
			c-0.06,0-0.09,0.03-0.09,0.09v0.88c0,0.06,0.03,0.09,0.09,0.09h2.11c0.27,0,0.5-0.04,0.69-0.11c0.18-0.07,0.33-0.2,0.43-0.39
			c0.11,0.2,0.25,0.34,0.43,0.4c0.18,0.06,0.39,0.1,0.62,0.1h1.13h3.08h1.13h2.65c0.29,0,0.54-0.04,0.76-0.11
			c0.21-0.07,0.38-0.21,0.49-0.42c0.12,0.22,0.26,0.37,0.45,0.43c0.18,0.07,0.39,0.1,0.64,0.1c0,0,0,0,0,0h1.13h3.08h1.13h0.94
			c0.37,0,0.63-0.09,0.79-0.27c0.16-0.18,0.24-0.46,0.24-0.83v-4.75C149.37,28.28,149.34,28.25,149.29,28.25z"/>
	</g>
	<g class="st1">
		<path class="st3" d="M72.24,15.49h-2.87c-0.11,0-0.16,0.06-0.16,0.16v1.66c0,0.11,0.06,0.16,0.16,0.16h1.89
			c0.49,0,0.87,0.1,1.11,0.29c0.25,0.19,0.37,0.5,0.37,0.93v0.89c0,0.21-0.01,0.38-0.04,0.53c-0.03,0.14-0.08,0.26-0.16,0.35
			c-0.08,0.09-0.21,0.15-0.37,0.19c-0.16,0.04-0.38,0.06-0.66,0.06h-2.83c-0.11,0-0.16,0.06-0.16,0.16v1.66
			c0,0.11,0.06,0.16,0.16,0.16h3.99c0.42,0,0.78-0.05,1.1-0.14c0.31-0.09,0.57-0.25,0.77-0.46c0.2-0.21,0.36-0.5,0.46-0.86
			c0.1-0.36,0.16-0.81,0.16-1.35v-1.43c0-1.02-0.25-1.77-0.76-2.25C73.9,15.73,73.18,15.49,72.24,15.49z"/>
		<path class="st3" d="M96.43,16.34c-0.3-0.25-0.66-0.42-1.1-0.52c-0.43-0.1-0.94-0.16-1.51-0.18l2.47-2.87
			c0.04-0.09,0.02-0.16-0.07-0.23l-1.37-1.15c-0.08-0.04-0.15-0.03-0.21,0.05l-3.49,4.13c-0.07,0.08-0.14,0.16-0.23,0.26
			c-0.09,0.09-0.13,0.18-0.13,0.25v1.35c0,0.11,0.05,0.16,0.16,0.16h2.47c0.52,0,0.89,0.1,1.13,0.3c0.24,0.2,0.35,0.52,0.35,0.96
			v0.76c0,0.22-0.01,0.4-0.04,0.54c-0.03,0.14-0.09,0.25-0.17,0.34c-0.09,0.08-0.21,0.14-0.38,0.17c-0.16,0.03-0.38,0.05-0.64,0.05
			h-3.69h-2.12h-2.82h-1.12v-1.53c0-0.7-0.1-1.29-0.29-1.77c-0.19-0.48-0.45-0.86-0.78-1.14c-0.33-0.28-0.71-0.48-1.15-0.6
			c-0.44-0.12-0.9-0.18-1.38-0.18c-0.46,0-0.91,0.07-1.34,0.2c-0.43,0.13-0.82,0.35-1.15,0.64c-0.34,0.3-0.6,0.69-0.81,1.17
			c-0.2,0.48-0.31,1.08-0.31,1.78c0,1.25,0.29,2.14,0.87,2.65c0.58,0.52,1.4,0.77,2.48,0.77h1.58c0,0.29-0.03,0.52-0.1,0.7
			c-0.07,0.18-0.16,0.32-0.28,0.42s-0.27,0.17-0.45,0.21c-0.18,0.04-0.39,0.06-0.62,0.06h-1.89c-0.11,0-0.16,0.05-0.16,0.16v1.66
			c0,0.11,0.05,0.16,0.16,0.16h2.4c1.11,0,1.92-0.25,2.45-0.76c0.52-0.5,0.78-1.27,0.78-2.31V22.7h1.12h2.82h2.12h4.84
			c0.42,0,0.78-0.05,1.1-0.14c0.31-0.09,0.57-0.25,0.77-0.46c0.2-0.21,0.36-0.5,0.46-0.86c0.1-0.36,0.16-0.81,0.16-1.35v-0.97
			c0-0.64-0.07-1.16-0.22-1.58C96.95,16.92,96.72,16.58,96.43,16.34z M81.63,20.71h-1.27c-0.42,0-0.76-0.1-1.01-0.31
			c-0.26-0.2-0.39-0.61-0.39-1.21c0-0.53,0.12-0.94,0.35-1.25c0.24-0.31,0.57-0.46,1.01-0.46c0.87,0,1.3,0.54,1.3,1.63V20.71z"/>
		<path class="st3" d="M144.8,11.5h-2.01c-0.11,0-0.16,0.06-0.16,0.16v8.17c0,0.33-0.06,0.56-0.19,0.68
			c-0.13,0.13-0.33,0.19-0.6,0.19h-0.58h-2.82h-2.11h-0.02h-0.46c-0.29,0-0.52-0.08-0.71-0.26c-0.19-0.17-0.29-0.44-0.31-0.8
			c0-0.07,0-0.13,0.01-0.21c0.01-0.07,0.01-0.15,0.01-0.22c0-1.25-0.33-2.19-0.99-2.81c-0.66-0.62-1.54-0.93-2.65-0.93
			c-1.16,0-2.06,0.29-2.68,0.88c-0.63,0.59-0.94,1.43-0.94,2.53v0.33c-0.02,0.57-0.13,0.96-0.34,1.17c-0.2,0.21-0.43,0.31-0.68,0.31
			h-0.48h-2.82c0,0,0,0,0,0s0,0,0,0h-2.11h-0.02h-1.51c0.12-0.19,0.23-0.47,0.33-0.84c0.1-0.37,0.15-0.75,0.15-1.14
			c0-0.6-0.1-1.11-0.3-1.53c-0.2-0.42-0.46-0.75-0.79-1c-0.33-0.25-0.71-0.43-1.15-0.54c-0.44-0.11-0.91-0.16-1.4-0.16
			c-0.43,0-0.85,0.06-1.28,0.17c-0.42,0.12-0.8,0.31-1.14,0.59s-0.61,0.65-0.82,1.12c-0.21,0.47-0.31,1.06-0.31,1.76v1.58h-1.4
			h-2.12c0,0,0,0,0,0c0,0,0,0,0,0h-2.82h0h-0.44c-0.27,0-0.48-0.06-0.6-0.19c-0.13-0.13-0.19-0.35-0.19-0.68v-8.17
			c0-0.11-0.06-0.16-0.16-0.16h-1.99c-0.11,0-0.16,0.06-0.16,0.16v8.96c0,0.71,0.15,1.24,0.44,1.57c0.3,0.34,0.79,0.5,1.48,0.5h1.63
			h0h2.82c0,0,0,0,0,0c0,0,0,0,0,0h2.12h1.4v0.97c0,0.49,0.09,0.91,0.27,1.24c0.18,0.33,0.43,0.6,0.76,0.81
			c0.32,0.2,0.7,0.35,1.14,0.43c0.43,0.08,0.9,0.12,1.41,0.12c0.49,0,0.95-0.04,1.37-0.13c0.42-0.09,0.78-0.23,1.09-0.42
			c0.31-0.19,0.56-0.44,0.73-0.75c0.18-0.31,0.26-0.67,0.26-1.1c0-0.22-0.03-0.43-0.09-0.63c-0.06-0.2-0.15-0.38-0.26-0.54h1.53
			h0.02h2.11c0,0,0,0,0,0s0,0,0,0h2.82c0.16,0,0.35-0.01,0.56-0.02c0.21-0.02,0.42-0.06,0.63-0.12c0.21-0.06,0.42-0.15,0.62-0.27
			c0.2-0.12,0.36-0.28,0.48-0.48c0.33,0.37,0.74,0.63,1.23,0.78c0.49,0.15,1.02,0.22,1.61,0.22c0.59,0,1.14-0.08,1.64-0.24
			c0.5-0.16,0.91-0.44,1.24-0.83c0.13,0.22,0.29,0.39,0.46,0.52c0.18,0.13,0.36,0.22,0.56,0.29c0.2,0.07,0.4,0.11,0.61,0.12
			c0.2,0.02,0.4,0.02,0.59,0.02c0,0,0,0,0.01,0h2.12h2.82h1.78c0.69,0,1.19-0.17,1.48-0.5c0.3-0.34,0.44-0.86,0.44-1.57v-8.96
			C144.96,11.56,144.91,11.5,144.8,11.5z M117.41,24.15c-0.18,0.15-0.49,0.22-0.91,0.22c-0.44,0-0.76-0.08-0.97-0.23
			c-0.21-0.15-0.31-0.41-0.31-0.76v-0.81h1.14c0.55,0,0.91,0.08,1.08,0.26c0.17,0.17,0.26,0.4,0.26,0.68
			C117.68,23.78,117.59,24,117.41,24.15z M117.53,20.25c-0.2,0.33-0.51,0.49-0.94,0.49h-1.38V19c0-0.52,0.11-0.9,0.35-1.14
			c0.23-0.25,0.54-0.37,0.92-0.37c0.43,0,0.76,0.13,1,0.38c0.24,0.25,0.35,0.64,0.35,1.17C117.83,19.51,117.73,19.92,117.53,20.25z
			 M132.23,20.46c-0.22,0.25-0.56,0.37-1.02,0.37c-0.45,0-0.79-0.12-1.01-0.37c-0.23-0.25-0.34-0.68-0.34-1.31
			c0-1.11,0.45-1.66,1.35-1.66c0.9,0,1.35,0.55,1.35,1.66C132.56,19.77,132.45,20.21,132.23,20.46z"/>
		<path class="st3" d="M149.1,11.5h-1.99c-0.11,0-0.16,0.06-0.16,0.16v10.87c0,0.11,0.06,0.16,0.16,0.16h1.99
			c0.11,0,0.16-0.06,0.16-0.16V11.67C149.26,11.56,149.21,11.5,149.1,11.5z"/>
	</g>
</g>
<g>
	<g>
		<g>
			<g>
				<path class="st5" d="M32.43,44.73c-1.86-1.12,0.99,1.69-1.86,0.74c-14.49-4.8-15.66-20.23-10.94-30.11
					c0.13-0.28,0.47-0.37,0.54-0.07c1.03,4.36,2.29,7.83,3.3,10.6c0.02,0.03,0.04,0.07,0.06,0.1c3.83,6.33,7.44-0.61,7.21,2.8
					c-0.1,1.52,0.26,3.16,0.89,4.8c0.43,1.1,0.97,2.2,1.58,3.27c0.71,1.23,1.5,2.41,2.28,3.48c0,0,0,0,0,0
					c1.8,2.46,3.6,4.4,4.14,4.99C38.64,45.84,34.37,45.89,32.43,44.73z"/>
			</g>
		</g>
		<path class="st5" d="M32.78,11.6c-0.99-0.75-4.5-2.01-4.6-0.12c-0.07,1.29,0.42,1.87,1.7,1.61c0.21-0.04,1.19-0.29,1.32-0.31
			c0.05-0.01,0.09-0.02,0.14-0.04c0.39-0.12,1.07-0.23,1.46-0.36C33.17,12.27,33.06,11.82,32.78,11.6z M29.86,12.63
			c-0.42,0-0.76-0.34-0.76-0.76s0.34-0.76,0.76-0.76s0.76,0.34,0.76,0.76S30.28,12.63,29.86,12.63z"/>
		<path class="st5" d="M48.08,15.49c-2.32-1.66-2.32-1.96-4.37-2.93c-1.43-0.83-4.06-2.09-4.06-2.09s-2.41-2.54-6.06-4.17
			c-0.5-0.22-0.93-0.56-1.27-0.98c-1.26-1.54-3.06-2.97-5.28-3.12c-0.12-0.02-0.24-0.04-0.36-0.05c-0.12-0.01-0.24-0.03-0.35-0.04
			c-0.23-0.01-0.46-0.03-0.68-0.03H25.3c-0.11,0-0.22,0.01-0.33,0.01c-0.22,0.01-0.43,0.03-0.64,0.05c-0.84,0.09-1.63,0.26-2.4,0.48
			c-1.53,0.45-2.95,1.1-4.29,1.96c-0.17,0.11-0.33,0.22-0.5,0.34c-0.17,0.11-0.33,0.23-0.49,0.36c-0.08,0.06-0.17,0.13-0.24,0.18
			l-0.21,0.18l-0.42,0.37l-0.42,0.37l-0.21,0.18c-0.07,0.06-0.13,0.13-0.2,0.2l-0.79,0.8c-1.03,1.11-1.98,2.29-2.76,3.6
			c-0.1,0.16-0.21,0.32-0.3,0.48l-0.27,0.5c-0.17,0.34-0.37,0.66-0.51,1.01c-0.15,0.35-0.31,0.69-0.46,1.03l-0.4,1.06
			c-0.98,2.84-1.33,5.79-1.29,8.62c0.01,1.4,0.11,2.84,0.31,4.26c0.2,1.42,0.52,2.82,0.95,4.18c0.43,1.36,0.97,2.68,1.61,3.95
			c0.65,1.26,1.4,2.47,2.24,3.6c0.84,1.13,1.78,2.19,2.79,3.16c1.01,0.97,2.11,1.84,3.26,2.62c2.31,1.54,4.89,2.69,7.59,3.18
			c0.13,0.02,0.26-0.05,0.29-0.18c0.04-0.13-0.04-0.28-0.17-0.32l0,0c-2.55-0.78-4.85-2.15-6.87-3.81
			c-1.01-0.84-1.94-1.76-2.79-2.75c-0.85-0.98-1.61-2.03-2.28-3.13c-0.67-1.1-1.24-2.25-1.71-3.44c-0.48-1.19-0.86-2.41-1.13-3.65
			c-0.28-1.24-0.46-2.5-0.53-3.76c-0.03-0.32-0.03-0.64-0.04-0.95c-0.01-0.16-0.01-0.32-0.01-0.48l0-0.47
			c0-0.63,0.03-1.28,0.06-1.92c0.15-2.56,0.62-5.02,1.56-7.23l0.38-0.81c0.14-0.26,0.29-0.52,0.43-0.78
			c0.07-0.13,0.14-0.26,0.23-0.38l0.25-0.37l0.25-0.37c0.08-0.12,0.19-0.23,0.27-0.35c1.5-2.25,3.2-3.57,3.76-3.97
			c0.14-0.1,0.29-0.16,0.44-0.25c2.79-1.71,3.82,1.19,3.65,1.4c-0.58,0.7-1.03,1.35-1.27,1.9c0,0,0,0.01,0,0.01
			c-0.1,0.23-0.17,0.47-0.2,0.75c-0.05,0.48,0,1.05,0.16,1.74c0.78,3.32,1.61,6.72,2.9,9.88c0.99,2.41,4.41,2.52,5.47,0.14
			c0.45-1.01,1.15-1.76,2.13-2.32c0.61-0.46,1.22-0.92,1.83-1.39c1.32-1.41,6.31-0.42,6.63-0.43c0.37-0.01,2.85-0.08,3.19-0.23
			c0.3-0.14,0.66-0.22,1.05-0.24c0.28-0.01,0.55,0.01,0.79,0.07c0.95,0.21,1.95,0.02,2.67-0.64c0.11-0.1,0.35-0.45,0.58-0.79
			c0.03-0.04,0.04-0.08,0.04-0.13c0-0.11-0.08-0.21-0.2-0.23c-0.36-0.06-0.71-0.14-1.07-0.2l-0.53-0.11
			c-0.18-0.04-0.35-0.07-0.53-0.12c-0.17-0.05-0.35-0.09-0.53-0.14l-0.52-0.15c-0.17-0.06-0.34-0.12-0.51-0.19
			c-0.17-0.07-0.34-0.13-0.5-0.21c-0.33-0.16-0.66-0.32-0.92-0.59c-0.02-0.02-0.02-0.04,0-0.06c0.02-0.01,0.04-0.01,0.05,0
			l0.01,0.01c0.13,0.1,0.3,0.18,0.46,0.24c0.16,0.07,0.33,0.13,0.5,0.17c0.17,0.06,0.34,0.09,0.51,0.13
			c0.17,0.04,0.35,0.07,0.52,0.11l0.52,0.09c0.17,0.03,0.35,0.05,0.52,0.07c0.17,0.02,0.35,0.04,0.52,0.06l0.53,0.05
			c0.39,0.03,0.79,0.04,1.18,0.05c0.34,0.01,0.62-0.25,0.64-0.59C49.62,16.31,49.26,15.96,48.08,15.49z M33.27,13.53
			c-0.11,0.28-0.25,0.57-0.4,0.86c-0.05,0.09-0.1,0.18-0.15,0.26c-0.1,0.18-0.21,0.35-0.32,0.52l0,0c-0.02,0.03-0.04,0.06-0.06,0.08
			c-0.02,0.03-0.04,0.06-0.06,0.09c-0.28,0.4-0.71,0.97-0.77,1.05c-0.01,0.01-0.01,0.01-0.01,0.01c-0.11,0.13-0.65,0.71-1.13,1.2
			c0,0-0.01,0.01-0.01,0.02c-0.36,0.33-0.7,0.61-0.99,0.8c-0.64,0.41-1.69,0.34-1.77-0.44c-0.09-0.83,0-2.19-0.08-3.01
			c-0.01-0.09-0.01-0.18,0-0.28c0.01-0.17-0.01-1.04-0.03-1.76c0-0.1-0.01-0.81-0.01-0.95c0.05-2.6,1.58-3.17,4.47-2.24
			c0.05,0.02,0.09,0.03,0.15,0.05l0.01,0C33.81,10.45,33.89,11.94,33.27,13.53z"/>
		<path class="st5" d="M40.75,44.98c-0.54-0.59-2.28-2.47-4.07-4.93c0,0,0,0,0,0l-2.28-3.48c-2.03-3.8-2.62-6.3-2.33-8.51
			c0,0,0,0,0,0c0,0,0,0,0,0c0.22,0.17,7.83,6.25,15.17,5.16c0.68-0.1,1.67-0.22,1.95,0.41C50.02,35.56,46.36,43.04,40.75,44.98z"/>
		<path class="st5" d="M32.78,11.6c-0.99-0.75-4.5-2.01-4.6-0.12c-0.07,1.29,0.42,1.87,1.7,1.61c0.21-0.04,1.19-0.29,1.32-0.31
			c0.05-0.01,0.09-0.02,0.14-0.04c0.39-0.12,1.07-0.23,1.46-0.36C33.17,12.27,33.06,11.82,32.78,11.6z M29.86,12.63
			c-0.42,0-0.76-0.34-0.76-0.76s0.34-0.76,0.76-0.76s0.76,0.34,0.76,0.76S30.28,12.63,29.86,12.63z"/>
	</g>
	<g>
		<path class="st5" d="M69.53,28.31h-1.34c-0.07,0-0.11,0.04-0.11,0.11v7.11c0,0.45-0.11,0.78-0.32,1
			c-0.21,0.21-0.51,0.32-0.89,0.32c-0.15,0-0.31-0.02-0.46-0.07c-0.15-0.05-0.29-0.13-0.41-0.24c-0.12-0.11-0.22-0.26-0.29-0.43
			c-0.07-0.18-0.11-0.4-0.11-0.65c0-0.33,0.04-0.62,0.13-0.88c0.09-0.26,0.18-0.49,0.29-0.7c0.01-0.03,0.02-0.06,0.02-0.08
			c0-0.03-0.02-0.05-0.06-0.06l-1.2-0.39c-0.08-0.02-0.14-0.01-0.17,0.03c-0.19,0.31-0.34,0.66-0.45,1.05
			C64.05,34.82,64,35.21,64,35.57c0,0.47,0.08,0.87,0.23,1.2c0.15,0.34,0.36,0.61,0.61,0.82c0.26,0.21,0.56,0.37,0.9,0.47
			c0.34,0.1,0.71,0.15,1.09,0.15c0.39,0,0.76-0.05,1.1-0.15c0.34-0.1,0.64-0.26,0.89-0.47c0.25-0.21,0.45-0.48,0.59-0.81
			c0.14-0.33,0.22-0.73,0.22-1.19v-7.18C69.64,28.35,69.6,28.31,69.53,28.31z"/>
		<path class="st5" d="M98.97,34.5h-2.41c-0.05-0.03-0.12-0.07-0.19-0.13c-0.08-0.06-0.15-0.13-0.23-0.22
			c-0.07-0.09-0.14-0.2-0.19-0.33c-0.05-0.13-0.08-0.28-0.08-0.45c0-0.34,0.09-0.6,0.28-0.77c0.18-0.18,0.42-0.27,0.72-0.27
			c0.41,0,0.77,0.17,1.1,0.5c0.05,0.05,0.11,0.05,0.17,0l0.7-0.83c0.06-0.06,0.07-0.11,0.02-0.17c-0.18-0.22-0.46-0.42-0.82-0.59
			c-0.36-0.17-0.81-0.25-1.34-0.25c-0.42,0-0.79,0.06-1.1,0.19c-0.31,0.13-0.56,0.29-0.76,0.5c-0.2,0.21-0.35,0.44-0.44,0.71
			c-0.1,0.27-0.14,0.55-0.14,0.85c0,0.27,0.04,0.52,0.12,0.73c0.08,0.21,0.18,0.39,0.29,0.54h-0.89h-1.43h-3.07h-2.26H87h-0.31
			c-0.19,0-0.35-0.06-0.48-0.17c-0.13-0.11-0.2-0.29-0.21-0.54c0-0.04,0-0.09,0.01-0.14c0-0.05,0.01-0.1,0.01-0.15
			c0-0.84-0.22-1.47-0.66-1.89c-0.44-0.42-1.04-0.63-1.78-0.63c-0.78,0-1.38,0.2-1.8,0.59c-0.42,0.39-0.63,0.96-0.63,1.7v0.22
			c-0.01,0.38-0.09,0.65-0.23,0.79c-0.14,0.14-0.29,0.21-0.46,0.21h-0.32H78.7h-3.91h-1.43h-0.3c-0.18,0-0.32-0.04-0.4-0.13
			c-0.08-0.08-0.13-0.24-0.13-0.46v-5.49c0-0.07-0.04-0.11-0.11-0.11h-1.34c-0.07,0-0.11,0.04-0.11,0.11v6.02
			c0,0.48,0.1,0.83,0.3,1.06c0.2,0.22,0.53,0.34,1,0.34h1.1h1.43h3.91h1.43c0.11,0,0.24-0.01,0.38-0.02
			c0.14-0.01,0.28-0.04,0.43-0.08c0.14-0.04,0.28-0.1,0.42-0.18c0.13-0.08,0.24-0.19,0.32-0.32c0.22,0.25,0.5,0.43,0.82,0.53
			c0.33,0.1,0.69,0.15,1.08,0.15c0.4,0,0.77-0.05,1.1-0.16c0.34-0.11,0.61-0.29,0.84-0.56c0.09,0.15,0.19,0.26,0.31,0.35
			c0.12,0.08,0.24,0.15,0.38,0.19s0.27,0.07,0.41,0.08c0.14,0.01,0.27,0.02,0.39,0.02c0,0,0,0,0,0h2.27h3.07h1.43h5.2
			c0.07,0,0.11-0.04,0.11-0.11v-1.12C99.08,34.54,99.04,34.5,98.97,34.5z M84.25,34.33c-0.15,0.17-0.38,0.25-0.69,0.25
			c-0.3,0-0.53-0.08-0.68-0.25c-0.15-0.17-0.23-0.46-0.23-0.88c0-0.75,0.3-1.12,0.91-1.12c0.61,0,0.91,0.37,0.91,1.12
			C84.48,33.87,84.4,34.16,84.25,34.33z"/>
		<path class="st5" d="M106.3,28.31h-1.35c-0.07,0-0.11,0.04-0.11,0.11v5.49c0,0.22-0.04,0.37-0.13,0.46
			c-0.08,0.08-0.22,0.13-0.4,0.13h-1.01v-4.52c0-0.07-0.04-0.11-0.11-0.11h-1.35c-0.07,0-0.11,0.04-0.11,0.11v4.52h-1.76
			c-0.07,0-0.11,0.04-0.11,0.11v1.12c0,0.07,0.04,0.11,0.11,0.11h5.15c0.47,0,0.8-0.11,1-0.34c0.2-0.22,0.3-0.58,0.3-1.06v-6.02
			C106.41,28.35,106.37,28.31,106.3,28.31z"/>
		<path class="st5" d="M109.19,28.31h-1.34c-0.07,0-0.11,0.04-0.11,0.11v7.31c0,0.07,0.04,0.11,0.11,0.11h1.34
			c0.07,0,0.11-0.04,0.11-0.11v-7.31C109.3,28.35,109.26,28.31,109.19,28.31z"/>
		<path class="st5" d="M121.39,31.18h-1.35c-0.07,0-0.11,0.04-0.11,0.11v2.62c0,0.22-0.04,0.37-0.13,0.46
			c-0.09,0.08-0.22,0.13-0.42,0.13h-4.14c-0.18,0-0.32-0.04-0.4-0.13c-0.08-0.08-0.13-0.24-0.13-0.46V32c0-0.07-0.04-0.11-0.11-0.11
			h-1.35c-0.07,0-0.11,0.04-0.11,0.11v2.45c0,0.48,0.1,0.83,0.3,1.06c0.2,0.22,0.53,0.34,1,0.34h5.75c0.48,0,0.82-0.11,1.02-0.34
			c0.2-0.22,0.3-0.58,0.3-1.06v-3.16C121.5,31.22,121.47,31.18,121.39,31.18z"/>
		<path class="st5" d="M117.61,30.71h1.12c0.07,0,0.11-0.04,0.11-0.11v-1.09c0-0.07-0.04-0.11-0.11-0.11h-1.12
			c-0.07,0-0.11,0.04-0.11,0.11v1.09C117.49,30.68,117.53,30.71,117.61,30.71z"/>
		<path class="st5" d="M115.9,30.71h1.11c0.07,0,0.11-0.04,0.11-0.11v-1.09c0-0.07-0.04-0.11-0.11-0.11h-1.11
			c-0.07,0-0.11,0.04-0.11,0.11v1.09C115.79,30.68,115.83,30.71,115.9,30.71z"/>
		<path class="st5" d="M137.03,31.52c-0.23-0.19-0.49-0.33-0.78-0.41c-0.3-0.08-0.61-0.12-0.93-0.12c-0.32,0-0.62,0.04-0.91,0.11
			c-0.29,0.07-0.55,0.2-0.77,0.38c-0.23,0.18-0.41,0.41-0.54,0.71c-0.14,0.3-0.21,0.66-0.21,1.1v0.22
			c-0.01,0.38-0.09,0.65-0.23,0.79c-0.14,0.14-0.29,0.21-0.45,0.21h-0.32h-1.43h-3.91h-1.43h-0.3c-0.18,0-0.32-0.04-0.4-0.13
			c-0.08-0.08-0.13-0.24-0.13-0.46v-5.49c0-0.07-0.04-0.11-0.11-0.11h-1.34c-0.07,0-0.11,0.04-0.11,0.11v6.02
			c0,0.48,0.1,0.83,0.3,1.06c0.2,0.22,0.53,0.34,1,0.34h1.1h1.43h3.91h1.43c0.1,0,0.22,0,0.35-0.01c0.13-0.01,0.27-0.03,0.41-0.07
			c0.14-0.04,0.28-0.1,0.42-0.18c0.14-0.08,0.26-0.19,0.36-0.34c0.22,0.25,0.5,0.43,0.82,0.53c0.33,0.1,0.69,0.15,1.08,0.15
			c0.35,0,0.67-0.04,0.97-0.12c0.3-0.08,0.56-0.22,0.78-0.4c0.22-0.19,0.39-0.44,0.52-0.75c0.13-0.31,0.19-0.69,0.19-1.14
			c0-0.49-0.07-0.89-0.2-1.21C137.44,31.97,137.26,31.71,137.03,31.52z M136.01,34.33c-0.15,0.17-0.38,0.25-0.69,0.25
			c-0.3,0-0.53-0.08-0.69-0.25c-0.16-0.17-0.23-0.46-0.23-0.88c0-0.75,0.31-1.12,0.92-1.12c0.61,0,0.91,0.37,0.91,1.12
			C136.23,33.87,136.16,34.16,136.01,34.33z"/>
		<path class="st5" d="M153.03,30.07h1.37c0.07,0,0.11-0.04,0.11-0.11v-1.08c0-0.07-0.04-0.11-0.11-0.11h-1.37
			c-0.07,0-0.11,0.04-0.11,0.11v1.08C152.92,30.03,152.96,30.07,153.03,30.07z"/>
		<path class="st5" d="M166.55,28.31h-1.35c-0.07,0-0.11,0.04-0.11,0.11v5.49c0,0.22-0.04,0.37-0.13,0.46
			c-0.08,0.08-0.22,0.13-0.4,0.13h-0.39h-1.43h-3.91h-1.43h0h-0.25c-0.26,0-0.46-0.05-0.59-0.15c-0.14-0.1-0.22-0.24-0.24-0.42
			v-0.18c0-0.39-0.05-0.75-0.14-1.09c-0.1-0.34-0.25-0.63-0.46-0.87c-0.21-0.25-0.48-0.44-0.82-0.58c-0.34-0.14-0.75-0.21-1.23-0.21
			c-0.47,0-0.87,0.08-1.2,0.25c-0.33,0.17-0.62,0.38-0.88,0.64c-0.04,0.04-0.03,0.1,0.03,0.17l0.65,0.79
			c0.05,0.04,0.1,0.04,0.15-0.01c0.16-0.14,0.32-0.26,0.51-0.35c0.18-0.09,0.39-0.14,0.63-0.14c0.21,0,0.39,0.04,0.54,0.11
			c0.14,0.07,0.26,0.17,0.35,0.29c0.09,0.12,0.15,0.26,0.19,0.43c0.04,0.16,0.06,0.34,0.06,0.52c0,0.16-0.01,0.3-0.04,0.4
			c-0.03,0.11-0.07,0.19-0.13,0.25c-0.06,0.06-0.15,0.11-0.26,0.13c-0.11,0.03-0.25,0.04-0.43,0.04h-2.75h-1.43h-3.91h-1.43h-0.24
			c-0.26,0-0.46-0.05-0.6-0.16c-0.14-0.11-0.22-0.25-0.24-0.44v-0.92c0-0.73-0.19-1.25-0.56-1.54c-0.37-0.3-0.9-0.45-1.59-0.45
			h-1.74c-0.07,0-0.11,0.04-0.11,0.11v1.12c0,0.07,0.04,0.11,0.11,0.11h1.27c0.33,0,0.58,0.06,0.75,0.19
			c0.17,0.13,0.25,0.34,0.25,0.63v0.6c0,0.14-0.01,0.26-0.03,0.35c-0.02,0.1-0.06,0.17-0.11,0.23c-0.06,0.06-0.14,0.1-0.25,0.13
			c-0.11,0.03-0.26,0.04-0.44,0.04h-1.9c-0.07,0-0.11,0.04-0.11,0.11v1.12c0,0.07,0.04,0.11,0.11,0.11h2.68
			c0.35,0,0.64-0.05,0.87-0.14c0.23-0.09,0.42-0.26,0.55-0.49c0.14,0.26,0.32,0.43,0.55,0.51c0.23,0.08,0.49,0.12,0.79,0.12h1.43
			h3.91h1.43h3.37c0.37,0,0.69-0.05,0.96-0.14c0.27-0.09,0.48-0.27,0.63-0.54c0.15,0.28,0.34,0.46,0.56,0.55
			c0.23,0.09,0.5,0.13,0.81,0.13c0,0,0,0,0,0h1.43h3.91h1.43h1.2c0.47,0,0.8-0.11,1-0.34c0.2-0.22,0.3-0.58,0.3-1.06v-6.02
			C166.66,28.35,166.63,28.31,166.55,28.31z"/>
	</g>
	<g>
		<path class="st5" d="M68.86,12.13h-3.63c-0.14,0-0.21,0.07-0.21,0.21v2.11c0,0.14,0.07,0.21,0.21,0.21h2.4
			c0.63,0,1.1,0.12,1.41,0.37c0.31,0.24,0.47,0.64,0.47,1.18v1.13c0,0.26-0.02,0.49-0.05,0.67c-0.04,0.18-0.1,0.33-0.21,0.44
			c-0.11,0.11-0.26,0.19-0.47,0.24c-0.21,0.05-0.49,0.07-0.84,0.07h-3.59c-0.14,0-0.21,0.07-0.21,0.21v2.11
			c0,0.14,0.07,0.21,0.21,0.21h5.05c0.53,0,0.99-0.06,1.39-0.18c0.4-0.12,0.72-0.31,0.98-0.59c0.26-0.27,0.45-0.64,0.59-1.1
			c0.13-0.46,0.2-1.03,0.2-1.71v-1.82c0-1.29-0.32-2.24-0.96-2.85C70.96,12.43,70.04,12.13,68.86,12.13z"/>
		<path class="st5" d="M99.53,13.2c-0.38-0.31-0.84-0.53-1.39-0.66c-0.55-0.13-1.19-0.2-1.91-0.23l3.13-3.63
			c0.06-0.11,0.03-0.21-0.08-0.29l-1.73-1.46c-0.1-0.06-0.19-0.03-0.27,0.06l-4.43,5.24c-0.08,0.1-0.18,0.21-0.29,0.32
			c-0.11,0.12-0.17,0.23-0.17,0.32v1.71c0,0.14,0.07,0.21,0.21,0.21h3.13c0.65,0,1.13,0.13,1.43,0.38c0.3,0.25,0.45,0.65,0.45,1.21
			v0.96c0,0.28-0.02,0.51-0.05,0.69c-0.04,0.18-0.11,0.32-0.22,0.43c-0.11,0.11-0.27,0.18-0.48,0.22c-0.21,0.04-0.48,0.06-0.81,0.06
			h-4.68h-2.69h-3.58h-1.42V16.8c0-0.89-0.12-1.64-0.37-2.25c-0.24-0.6-0.57-1.09-0.99-1.44c-0.42-0.36-0.9-0.61-1.46-0.76
			c-0.56-0.15-1.14-0.23-1.75-0.23c-0.59,0-1.15,0.08-1.7,0.25c-0.55,0.17-1.04,0.44-1.46,0.81c-0.42,0.38-0.77,0.87-1.02,1.48
			c-0.26,0.61-0.39,1.36-0.39,2.26c0,1.59,0.37,2.71,1.1,3.36c0.73,0.65,1.78,0.98,3.14,0.98h2.01c0,0.36-0.04,0.66-0.13,0.89
			c-0.08,0.23-0.2,0.41-0.36,0.53c-0.15,0.12-0.34,0.21-0.57,0.26c-0.23,0.05-0.49,0.07-0.78,0.07h-2.4c-0.14,0-0.21,0.07-0.21,0.21
			v2.11c0,0.14,0.07,0.21,0.21,0.21h3.05c1.41,0,2.44-0.32,3.1-0.96c0.66-0.64,0.99-1.61,0.99-2.92v-0.4h1.42h3.58h2.69h6.14
			c0.53,0,0.99-0.06,1.39-0.18c0.4-0.12,0.72-0.31,0.98-0.59s0.45-0.64,0.58-1.1c0.13-0.46,0.2-1.03,0.2-1.71v-1.23
			c0-0.81-0.09-1.48-0.28-2.01C100.18,13.93,99.9,13.51,99.53,13.2z M80.77,18.75h-1.61c-0.53,0-0.96-0.13-1.28-0.39
			c-0.33-0.26-0.49-0.77-0.49-1.53c0-0.67,0.15-1.2,0.45-1.59c0.3-0.39,0.73-0.59,1.28-0.59c1.1,0,1.65,0.69,1.65,2.07V18.75z"/>
		<path class="st5" d="M160.86,7.07h-2.55c-0.14,0-0.21,0.07-0.21,0.21v10.36c0,0.42-0.08,0.71-0.24,0.87
			c-0.16,0.16-0.41,0.24-0.76,0.24h-0.73h-3.58h-2.67h-0.02h-0.59c-0.36,0-0.66-0.11-0.9-0.32c-0.24-0.22-0.37-0.55-0.4-1.01
			c0-0.08,0-0.17,0.01-0.26c0.01-0.09,0.01-0.18,0.01-0.28c0-1.59-0.42-2.77-1.25-3.56c-0.84-0.79-1.96-1.18-3.36-1.18
			c-1.48,0-2.61,0.37-3.4,1.12c-0.79,0.74-1.19,1.81-1.19,3.21v0.42c-0.03,0.72-0.17,1.22-0.43,1.48c-0.26,0.26-0.55,0.4-0.87,0.4
			h-0.61h-3.58c0,0,0,0,0,0c0,0,0,0,0,0h-2.67h-0.02h-1.92c0.15-0.24,0.29-0.59,0.42-1.07c0.13-0.47,0.19-0.95,0.19-1.44
			c0-0.77-0.13-1.41-0.38-1.94c-0.25-0.53-0.58-0.95-1-1.27c-0.42-0.32-0.9-0.55-1.46-0.69c-0.56-0.14-1.15-0.21-1.78-0.21
			c-0.54,0-1.08,0.07-1.62,0.22c-0.54,0.15-1.02,0.39-1.44,0.74c-0.42,0.35-0.77,0.82-1.03,1.42c-0.26,0.6-0.4,1.34-0.4,2.23v2.01
			h-1.78h-2.69c0,0,0,0,0,0c0,0,0,0,0,0h-3.58h0h-0.56c-0.35,0-0.6-0.08-0.76-0.24c-0.16-0.16-0.24-0.45-0.24-0.87V7.28
			c0-0.14-0.07-0.21-0.21-0.21h-2.53c-0.14,0-0.21,0.07-0.21,0.21v11.36c0,0.91,0.19,1.57,0.56,2c0.38,0.42,1,0.64,1.88,0.64h2.07h0
			h3.58c0,0,0,0,0,0c0,0,0,0,0,0h2.69h1.78v1.23c0,0.63,0.11,1.15,0.34,1.58c0.23,0.42,0.55,0.77,0.96,1.02
			c0.41,0.26,0.89,0.44,1.44,0.54c0.55,0.1,1.15,0.16,1.79,0.16c0.63,0,1.2-0.06,1.73-0.17c0.53-0.11,0.99-0.29,1.39-0.53
			c0.4-0.24,0.71-0.56,0.93-0.95c0.22-0.39,0.33-0.86,0.33-1.4c0-0.28-0.04-0.55-0.11-0.8c-0.08-0.26-0.18-0.48-0.32-0.68h1.94h0.02
			h2.67c0,0,0,0,0,0c0,0,0,0,0,0h3.58c0.21,0,0.45-0.01,0.71-0.03c0.26-0.02,0.53-0.07,0.8-0.15c0.27-0.08,0.53-0.19,0.78-0.34
			c0.25-0.15,0.45-0.36,0.61-0.61c0.42,0.47,0.94,0.8,1.56,0.99c0.62,0.19,1.3,0.28,2.04,0.28c0.75,0,1.44-0.1,2.08-0.3
			c0.63-0.2,1.16-0.55,1.58-1.05c0.17,0.28,0.36,0.5,0.59,0.66c0.22,0.16,0.46,0.28,0.71,0.37c0.25,0.08,0.51,0.14,0.77,0.16
			c0.25,0.02,0.5,0.03,0.74,0.03c0,0,0,0,0.01,0h2.69h3.58h2.26c0.88,0,1.5-0.21,1.88-0.64c0.38-0.42,0.56-1.09,0.56-2V7.28
			C161.07,7.14,161,7.07,160.86,7.07z M126.13,23.1c-0.23,0.19-0.62,0.28-1.16,0.28c-0.56,0-0.97-0.1-1.23-0.29
			c-0.26-0.19-0.4-0.51-0.4-0.96v-1.02h1.44c0.7,0,1.15,0.11,1.37,0.32c0.22,0.22,0.32,0.5,0.32,0.87
			C126.47,22.64,126.36,22.91,126.13,23.1z M126.29,18.16c-0.25,0.42-0.65,0.63-1.19,0.63h-1.75v-2.21c0-0.65,0.15-1.14,0.44-1.45
			c0.29-0.31,0.68-0.47,1.17-0.47c0.54,0,0.96,0.16,1.26,0.48c0.3,0.32,0.45,0.81,0.45,1.48C126.66,17.23,126.54,17.74,126.29,18.16
			z M144.92,18.42c-0.28,0.31-0.71,0.47-1.3,0.47c-0.57,0-1-0.16-1.28-0.47c-0.29-0.31-0.43-0.87-0.43-1.66
			c0-1.41,0.57-2.11,1.71-2.11c1.14,0,1.71,0.7,1.71,2.11C145.34,17.56,145.2,18.11,144.92,18.42z"/>
		<path class="st5" d="M166.31,7.07h-2.53c-0.14,0-0.21,0.07-0.21,0.21v13.79c0,0.14,0.07,0.21,0.21,0.21h2.53
			c0.14,0,0.21-0.07,0.21-0.21V7.28C166.52,7.14,166.45,7.07,166.31,7.07z"/>
	</g>
</g>
</svg>
